<?xml version="1.0" encoding="UTF-8" standalone="no"?>
<!-- Created with Inkscape (http://www.inkscape.org/) -->

<svg
   xmlns:dc="http://purl.org/dc/elements/1.1/"
   xmlns:cc="http://creativecommons.org/ns#"
   xmlns:rdf="http://www.w3.org/1999/02/22-rdf-syntax-ns#"
   xmlns:svg="http://www.w3.org/2000/svg"
   xmlns="http://www.w3.org/2000/svg"
   xmlns:sodipodi="http://sodipodi.sourceforge.net/DTD/sodipodi-0.dtd"
   xmlns:inkscape="http://www.inkscape.org/namespaces/inkscape"
   width="424.87689"
   height="360.76416"
   id="svg2"
   version="1.1"
   inkscape:version="0.91 r"
   sodipodi:docname="tatu_branco.svg"
   inkscape:export-filename="/home/diego/Documents/tatu.png"
   inkscape:export-xdpi="90"
   inkscape:export-ydpi="90">
  <defs
     id="defs4" />
  <sodipodi:namedview
     id="base"
     pagecolor="#ffffff"
     bordercolor="#666666"
     borderopacity="1.0"
     inkscape:pageopacity="0.0"
     inkscape:pageshadow="2"
     inkscape:zoom="0.7"
     inkscape:cx="171.62419"
     inkscape:cy="64.033901"
     inkscape:document-units="px"
     inkscape:current-layer="layer1"
     showgrid="false"
     inkscape:window-width="2560"
     inkscape:window-height="1024"
     inkscape:window-x="0"
     inkscape:window-y="0"
     inkscape:window-maximized="1"
     fit-margin-top="5"
     fit-margin-right="5"
     fit-margin-bottom="5"
     fit-margin-left="5" />
  <metadata
     id="metadata7">
    <rdf:RDF>
      <cc:Work
         rdf:about="">
        <dc:format>image/svg+xml</dc:format>
        <dc:type
           rdf:resource="http://purl.org/dc/dcmitype/StillImage" />
        <dc:title />
      </cc:Work>
    </rdf:RDF>
  </metadata>
  <g
     inkscape:label="Layer 1"
     inkscape:groupmode="layer"
     id="layer1"
     transform="translate(-226.91397,-236.24757)">
    <path
       style="fill:#ffffff;stroke:#ffffff;stroke-width:1px;stroke-linecap:butt;stroke-linejoin:miter;stroke-opacity:1"
       d="m 502.75649,305.85945 c 0,0 -73.06402,48.9631 -101.44088,77.73445 -28.37685,28.77134 -34.23085,33.63521 -70.23266,79.60383 -37.28521,47.60731 -98.83633,102.4591 -98.83633,102.4591 0,0 72.3659,-61.70943 102.73173,-96.02359 30.36583,-34.31416 16.07018,-19.28304 50.68393,-55.90278 22.55772,-23.86502 45.60532,-41.81177 58.58437,-50.98 46.96748,-33.17721 80.7332,-48.80979 80.7332,-48.80979 z"
       id="path2985"
       inkscape:connector-curvature="0"
       sodipodi:nodetypes="czsczsscc" />
    <path
       style="fill:#ffffff;stroke:#ffffff;stroke-width:1px;stroke-linecap:butt;stroke-linejoin:miter;stroke-opacity:1"
       d="m 234.26694,567.40665 13.13198,-11.11168 60.60915,6.06092 z"
       id="path3006"
       inkscape:connector-curvature="0" />
    <path
       style="fill:#ffffff;stroke:#ffffff;stroke-width:1px;stroke-linecap:butt;stroke-linejoin:miter;stroke-opacity:1"
       d="M 310.43628,562.5651 581.54839,453.34172 562.35549,430.10821 Z"
       id="path3008"
       inkscape:connector-curvature="0"
       sodipodi:nodetypes="cccc" />
    <path
       style="fill:#ffffff;stroke:#ffffff;stroke-width:1px;stroke-linecap:butt;stroke-linejoin:miter;stroke-opacity:1"
       d="m 514.82668,299.00739 c 0,0 9.41057,3.01381 18.04756,20.08534 8.63699,17.07153 11.47158,50.64752 20.31836,76.54183 12.97578,37.97978 21.07393,44.42397 35.64991,62.07667 9.29356,11.25526 41.34875,36.38282 41.34875,36.38282 0,0 -32.83288,-31.06038 -42.31519,-44.60398 -14.6261,-20.89047 -19.82957,-38.31519 -26.01125,-57.42841 -6.18169,-19.11322 -7.8905,-47.00377 -14.7633,-75.73014 -4.72758,-19.75995 -16.38723,-33.96934 -16.38723,-33.96934 z"
       id="path3010"
       inkscape:connector-curvature="0"
       sodipodi:nodetypes="czsscszscc" />
    <path
       style="fill:#ffffff;stroke:#ffffff;stroke-width:1px;stroke-linecap:butt;stroke-linejoin:miter;stroke-opacity:1"
       d="m 482.43872,317.31886 c 0,0 -15.71747,-6.65841 -25.62244,-15.4709 -9.90497,-8.81249 -11.18493,-12.97427 -11.18493,-12.97427 0,0 0.40008,-2.15656 1.12819,-4.35719 0.72811,-2.20063 1.47269,-3.54328 1.47269,-3.54328 0,0 3.99434,7.70244 11.33769,16.71557 7.34336,9.01313 22.8688,19.63007 22.8688,19.63007 z"
       id="path3012"
       inkscape:connector-curvature="0"
       sodipodi:nodetypes="czczczc" />
    <path
       style="fill:#ffffff;stroke:#ffffff;stroke-width:1px;stroke-linecap:butt;stroke-linejoin:miter;stroke-opacity:1"
       d="m 444.96039,285.85439 c 0,0 2.51024,-10.99576 7.0293,-20.55403 4.51907,-9.55827 10.36237,-13.30955 10.36237,-13.30955 l -4.3216,-6.94108 c 0,0 -6.9071,6.52328 -9.4756,16.9752 -2.5685,10.45192 -3.59447,23.82946 -3.59447,23.82946 z"
       id="path3014"
       inkscape:connector-curvature="0"
       sodipodi:nodetypes="czcczc" />
    <path
       style="fill:#ffffff;stroke:#ffffff;stroke-width:1px;stroke-linecap:butt;stroke-linejoin:miter;stroke-opacity:1"
       d="m 458.97869,244.2884 c 0,0 6.92618,3.65076 16.68616,14.54903 9.75998,10.89828 11.47801,17.09618 11.47801,17.09618 l -2.4709,9.50979 c 0,0 -2.94632,-9.98143 -10.93243,-21.99659 -7.9861,-12.01515 -14.76084,-19.15841 -14.76084,-19.15841 z"
       id="path3016"
       inkscape:connector-curvature="0"
       sodipodi:nodetypes="czcczc" />
    <path
       style="fill:#ffffff;stroke:#ffffff;stroke-width:1px;stroke-linecap:butt;stroke-linejoin:miter;stroke-opacity:1"
       d="m 488.06635,277.23591 c 0,0 -0.20383,12.61133 -1.97522,23.56642 -1.77138,10.95508 -3.48653,14.88246 -3.48653,14.88246 l -7.10324,-5.46175 c 0,0 4.41952,-5.23255 7.71324,-14.01339 3.29372,-8.78084 4.85175,-18.97374 4.85175,-18.97374 z"
       id="path3018"
       inkscape:connector-curvature="0"
       sodipodi:nodetypes="czcczc" />
    <path
       style="fill:#ffffff;stroke:#ffffff;stroke-width:1px;stroke-linecap:butt;stroke-linejoin:miter;stroke-opacity:1"
       d="m 487.3013,313.4231 8.10969,-5.29587 c 0,0 2.8669,-3.91772 4.02198,-13.03074 1.15508,-9.11302 -1.19702,-24.11956 -1.19702,-24.11956 0,0 1.29212,11.20066 -2.78212,25.45131 -4.07423,14.25066 -8.15253,16.99486 -8.15253,16.99486 z"
       id="path3020"
       inkscape:connector-curvature="0"
       sodipodi:nodetypes="cczczc" />
    <path
       style="fill:#ffffff;stroke:#ffffff;stroke-width:1px;stroke-linecap:butt;stroke-linejoin:miter;stroke-opacity:1"
       d="m 496.39267,282.12451 0.3751,-12.73831 c 0,0 -0.64465,-5.70294 -10.87102,-15.47318 -10.22637,-9.77023 -20.57242,-12.17847 -20.57242,-12.17847 0,0 12.17517,6.34401 21.27477,19.09095 9.0996,12.74695 9.79357,21.29901 9.79357,21.29901 z"
       id="path3022"
       inkscape:connector-curvature="0"
       sodipodi:nodetypes="cczczc" />
    <path
       style="fill:#ffffff;stroke:#ffffff;stroke-width:1px;stroke-linecap:butt;stroke-linejoin:miter;stroke-opacity:1"
       d="m 443.73969,436.00215 c 7.20661,-4.86869 35.31772,-9.98684 35.31772,-9.98684 -0.32306,5.33346 -6.36671,16.63895 -10.34401,18.98258 -6.70788,-0.44086 -19.26782,-5.54892 -24.97371,-8.99574 z"
       id="path3026"
       inkscape:connector-curvature="0"
       sodipodi:nodetypes="cccc" />
    <path
       style="fill:#ffffff;stroke:#ffffff;stroke-width:1px;stroke-linecap:butt;stroke-linejoin:miter;stroke-opacity:1"
       d="m 532.85714,279.86218 16.78572,-15.35714 c 0,0 6.35781,12.28263 8.14224,18.90912 7.41331,27.52939 5.04016,56.88032 10.19584,84.92035 2.84742,15.48617 5.93733,31.07572 11.4203,45.83602 4.14984,11.17147 9.44677,22.03463 16.1009,31.92126 9.35208,13.89523 21.45809,25.75855 33.04387,37.85437 5.5787,5.82429 17.52542,16.68107 17.52542,16.68107 0,0 -9.51659,-5.62588 -13.66731,-9.23054 -18.63897,-16.18687 -36.72388,-33.92253 -49.64118,-54.95986 -9.71444,-15.8211 -14.85973,-34.14483 -19.97087,-51.99291 -3.01672,-10.53439 -4.08482,-21.53204 -6.24327,-32.27518 -3.08749,-15.36717 -4.23431,-31.30422 -9.59395,-46.03368 -3.39844,-9.33967 -14.09771,-26.27288 -14.09771,-26.27288 z"
       id="path3028"
       inkscape:connector-curvature="0"
       sodipodi:nodetypes="ccaaaaacaaaaac" />
    <path
       style="fill:#ffffff;stroke:#ffffff;stroke-width:1px;stroke-linecap:butt;stroke-linejoin:miter;stroke-opacity:1"
       d="m 613.20321,487.74782 c 11.55989,9.48051 22.26817,14.70295 32.82995,19.1929 0,0 -17.90079,26.12444 -32.76145,42.60256 -8.28295,9.1845 -17.44931,13.10912 -17.65138,13.28284 -9.29649,7.99219 -11.3889,20.37383 -20.29784,23.41157 -7.43178,2.53406 -26.61128,-1.84778 -26.61128,-1.84778 l 18.9358,-10.34305 -8.67305,-5.59068 c -8.21506,3.27019 -15.00199,7.45846 -20.86251,12.24228 l -10.29415,-2.92713 c 7.8885,-4.47482 14.44209,-5.91006 20.26669,-7.51834 l -3.89061,-5.05225 c 0,0 19.48791,-14.76847 26.10135,-21.3889 16.63172,-16.64928 42.90848,-56.06402 42.90848,-56.06402 z"
       id="path3030"
       inkscape:connector-curvature="0"
       sodipodi:nodetypes="ccssscccccccsc" />
    <path
       style="fill:#ffffff;stroke:#ffffff;stroke-width:1px;stroke-linecap:butt;stroke-linejoin:miter;stroke-opacity:1"
       d="m 542.45192,568.18344 c -15.02516,1.9183 -31.14251,19.18098 -31.14251,19.18098 l -1.3941,-1.29012 c 0,0 12.30773,-16.25902 30.3269,-20.60565 z"
       id="path3032"
       inkscape:connector-curvature="0"
       sodipodi:nodetypes="ccccc" />
    <path
       style="fill:#ffffff;stroke:#ffffff;stroke-width:1px;stroke-linecap:butt;stroke-linejoin:miter;stroke-opacity:1"
       d="m 562.5287,573.54988 c -12.19972,5.74185 -23.83409,12.58419 -28.53681,17.86706 l -1.91244,-0.76672 c 9.83639,-10.71743 18.39587,-15.20993 26.91371,-19.49945 z"
       id="path3034"
       inkscape:connector-curvature="0"
       sodipodi:nodetypes="ccccc" />
    <path
       style="fill:#ffffff;stroke:#ffffff;stroke-width:1px;stroke-linecap:butt;stroke-linejoin:miter;stroke-opacity:1"
       d="m 613.28887,553.8519 5.3033,-5.42957 -2.02031,20.8344 -3.91434,-0.25254 z"
       id="path3036"
       inkscape:connector-curvature="0" />
    <path
       style="fill:#ffffff;stroke:#ffffff;stroke-width:1px;stroke-linecap:butt;stroke-linejoin:miter;stroke-opacity:1"
       d="m 259.64286,550.75504 39.82143,-30 -33.57143,30.71428 z"
       id="path3038"
       inkscape:connector-curvature="0" />
  </g>
</svg>
