<?xml version="1.0" encoding="UTF-8" standalone="no"?>
<!-- Created with Inkscape (http://www.inkscape.org/) -->

<svg
   xmlns:dc="http://purl.org/dc/elements/1.1/"
   xmlns:cc="http://creativecommons.org/ns#"
   xmlns:rdf="http://www.w3.org/1999/02/22-rdf-syntax-ns#"
   xmlns:svg="http://www.w3.org/2000/svg"
   xmlns="http://www.w3.org/2000/svg"
   xmlns:sodipodi="http://sodipodi.sourceforge.net/DTD/sodipodi-0.dtd"
   xmlns:inkscape="http://www.inkscape.org/namespaces/inkscape"
   width="63.000175mm"
   height="87.999825mm"
   viewBox="0 0 223.22897 311.8104"
   id="svg5806"
   version="1.1"
   inkscape:version="0.91 r"
   sodipodi:docname="copas_as.svg">
  <defs
     id="defs5808" />
  <sodipodi:namedview
     id="base"
     pagecolor="#ffffff"
     bordercolor="#666666"
     borderopacity="1.0"
     inkscape:pageopacity="0.0"
     inkscape:pageshadow="2"
     inkscape:zoom="0.35"
     inkscape:cx="-260.52837"
     inkscape:cy="-1.2376594"
     inkscape:document-units="px"
     inkscape:current-layer="layer1"
     showgrid="false"
     fit-margin-top="0"
     fit-margin-left="0"
     fit-margin-right="0"
     fit-margin-bottom="0"
     inkscape:window-width="2560"
     inkscape:window-height="1024"
     inkscape:window-x="0"
     inkscape:window-y="0"
     inkscape:window-maximized="1" />
  <metadata
     id="metadata5811">
    <rdf:RDF>
      <cc:Work
         rdf:about="">
        <dc:format>image/svg+xml</dc:format>
        <dc:type
           rdf:resource="http://purl.org/dc/dcmitype/StillImage" />
        <dc:title></dc:title>
      </cc:Work>
    </rdf:RDF>
  </metadata>
  <g
     inkscape:label="Layer 1"
     inkscape:groupmode="layer"
     id="layer1"
     transform="translate(-214.0998,-219.31415)">
    <g
       id="g5133"
       transform="translate(-254.91566,-894.16209)">
      <rect
         ry="10.62992"
         rx="10.62992"
         style="display:inline;fill:#ffffff;fill-opacity:1;stroke:#000000;stroke-width:0.99673247;stroke-miterlimit:4;stroke-dasharray:none;stroke-opacity:1"
         id="rect6355-6-85-9-3"
         width="222.23224"
         height="310.81366"
         x="469.51382"
         y="1113.9746" />
      <path
         d="m 580.97936,1245.8728 c -9.77448,0.2122 -14.15743,11.2172 -6.91838,19.7632 1.0499,1.2466 1.15822,1.9619 -0.76458,0.7646 -4.87384,-3.2592 -14.21925,-1.1167 -14.69781,8.8472 -0.59115,12.277 16.56285,15.8143 19.78372,2.7597 0.17004,-1.3774 1.28941,-1.3459 1.01952,0.6092 -0.29368,5.3064 -1.95084,10.266 -4.22863,15.1025 3.83908,0 8.12955,0 11.6202,0 -2.27768,-4.8365 -3.93496,-9.7961 -4.22864,-15.1025 -0.26989,-1.9551 0.84949,-1.9866 1.01953,-0.6092 3.22086,13.0546 20.37487,9.5173 19.78372,-2.7597 -0.47846,-9.9639 -9.82396,-12.1064 -14.69782,-8.8472 -1.92278,1.1973 -1.81446,0.482 -0.76457,-0.7646 7.23905,-8.546 2.8561,-19.551 -6.91829,-19.7632 0,-1e-4 0,0 -0.01,0 z"
         id="path147-0-8-1-6-1-1-0-9-1"
         inkscape:connector-curvature="0"
         sodipodi:nodetypes="ccccccccccccccc"
         style="display:inline;opacity:1" />
      <path
         d="m 674.96133,1374.975 c 3.90977,-0.088 5.66301,-4.6738 2.76739,-8.2347 -0.42002,-0.5194 -0.46332,-0.8174 0.30583,-0.3185 1.94956,1.358 5.68771,0.4652 5.87915,-3.6864 0.23644,-5.1154 -6.62521,-6.5893 -7.91353,-1.1499 -0.0677,0.5739 -0.51579,0.5608 -0.40777,-0.2538 0.11747,-2.211 0.7803,-4.2775 1.69142,-6.2927 -1.54926,0 -3.09862,0 -4.64787,0 0.91111,2.0152 1.57394,4.0817 1.69142,6.2927 0.10801,0.8146 -0.33978,0.8277 -0.40778,0.2538 -1.28832,-5.4394 -8.14996,-3.9655 -7.91352,1.1499 0.19144,4.1516 3.92958,5.0444 5.87914,3.6864 0.76916,-0.4989 0.72585,-0.2009 0.30583,0.3185 -2.89562,3.5609 -1.14238,8.1463 2.7673,8.2347 9.9e-4,0 0,0 0,0 z"
         id="path147-6-9-8-7-0-5-0-8"
         inkscape:connector-curvature="0"
         sodipodi:nodetypes="ccccccccccccccc"
         style="display:inline;opacity:1" />
      <path
         d="m 476.60583,1160.6626 0,-2.8127 2.68029,0 5.70981,-30.0817 3.24983,0 6.2897,30.0817 2.1644,0 0,2.8127 -7.37514,0 0,-2.8127 1.99038,0 -0.79484,-4.6099 -7.44035,0 -0.57472,4.6099 1.99028,0 0,2.8127 -7.88964,0 z m 13.27958,-10.7064 -3.2345,-16.1007 -3.02962,16.1007 6.26412,0 z m 0,0"
         id="path41-6-3-5"
         inkscape:connector-curvature="0"
         style="display:inline;opacity:1" />
      <path
         d="m 664.91142,1378.1005 0,2.8127 2.68029,0 5.70981,30.0818 3.24983,0 6.28971,-30.0818 2.16439,0 0,-2.8127 -7.37514,0 0,2.8127 1.99038,0 -0.79484,4.6099 -7.44035,0 -0.57472,-4.6099 1.99028,0 0,-2.8127 -7.88964,0 z m 13.27958,10.7064 -3.2345,16.1007 -3.02962,-16.1007 6.26412,0 z m 0,0"
         id="path41-6-4-0-2"
         inkscape:connector-curvature="0"
         style="display:inline;opacity:1" />
      <path
         d="m 486.65284,1163.7881 c -3.90978,0.088 -5.66302,4.6738 -2.7674,8.2347 0.42002,0.5194 0.46333,0.8174 -0.30583,0.3185 -1.94956,-1.358 -5.68769,-0.4652 -5.87913,3.6864 -0.23644,5.1154 6.62519,6.5893 7.91351,1.1499 0.0677,-0.5739 0.51579,-0.5608 0.40778,0.2538 -0.11748,2.211 -0.78031,4.2775 -1.69142,6.2927 1.54925,0 3.09861,0 4.64787,0 -0.91112,-2.0152 -1.57395,-4.0817 -1.69142,-6.2927 -0.10802,-0.8146 0.33977,-0.8277 0.40777,-0.2538 1.28832,5.4394 8.14997,3.9655 7.91353,-1.1499 -0.19144,-4.1516 -3.92959,-5.0444 -5.87915,-3.6864 -0.76915,0.4989 -0.72585,0.2009 -0.30583,-0.3185 2.89562,-3.5609 1.14238,-8.1463 -2.76729,-8.2347 -10e-4,0 0,0 0,0 z"
         id="path147-6-9-8-7-4-5-6-8"
         inkscape:connector-curvature="0"
         sodipodi:nodetypes="ccccccccccccccc"
         style="display:inline;opacity:1" />
    </g>
  </g>
</svg>
