<?xml version="1.0" encoding="UTF-8" standalone="no"?>
<!-- Created with Inkscape (http://www.inkscape.org/) -->

<svg
   xmlns:dc="http://purl.org/dc/elements/1.1/"
   xmlns:cc="http://creativecommons.org/ns#"
   xmlns:rdf="http://www.w3.org/1999/02/22-rdf-syntax-ns#"
   xmlns:svg="http://www.w3.org/2000/svg"
   xmlns="http://www.w3.org/2000/svg"
   xmlns:sodipodi="http://sodipodi.sourceforge.net/DTD/sodipodi-0.dtd"
   xmlns:inkscape="http://www.inkscape.org/namespaces/inkscape"
   width="63.000175mm"
   height="87.999825mm"
   viewBox="0 0 223.22897 311.8104"
   id="svg6408"
   version="1.1"
   inkscape:version="0.91 r"
   sodipodi:docname="copas_3.svg">
  <defs
     id="defs6410" />
  <sodipodi:namedview
     id="base"
     pagecolor="#ffffff"
     bordercolor="#666666"
     borderopacity="1.0"
     inkscape:pageopacity="0.0"
     inkscape:pageshadow="2"
     inkscape:zoom="0.35"
     inkscape:cx="-223.38551"
     inkscape:cy="130.19091"
     inkscape:document-units="px"
     inkscape:current-layer="layer1"
     showgrid="false"
     fit-margin-top="0"
     fit-margin-left="0"
     fit-margin-right="0"
     fit-margin-bottom="0"
     inkscape:window-width="2560"
     inkscape:window-height="1024"
     inkscape:window-x="0"
     inkscape:window-y="0"
     inkscape:window-maximized="1" />
  <metadata
     id="metadata6413">
    <rdf:RDF>
      <cc:Work
         rdf:about="">
        <dc:format>image/svg+xml</dc:format>
        <dc:type
           rdf:resource="http://purl.org/dc/dcmitype/StillImage" />
        <dc:title></dc:title>
      </cc:Work>
    </rdf:RDF>
  </metadata>
  <g
     inkscape:label="Layer 1"
     inkscape:groupmode="layer"
     id="layer1"
     transform="translate(-176.95694,-350.74272)">
    <g
       id="g5150"
       transform="translate(-819.22231,-762.73364)">
      <rect
         ry="10.629921"
         rx="10.62992"
         style="display:inline;fill:#ffffff;fill-opacity:1;stroke:#000000;stroke-width:0.99673378;stroke-miterlimit:4;stroke-dasharray:none;stroke-opacity:1"
         id="rect6355-6-85-2-7"
         width="222.23224"
         height="310.81366"
         x="996.67761"
         y="1113.9747" />
      <path
         d="m 1107.0825,1146.9795 c -9.7745,0.2123 -14.1574,11.2173 -6.9184,19.7633 1.0499,1.2465 1.1582,1.9619 -0.7646,0.7645 -4.8738,-3.2592 -14.2192,-1.1166 -14.6978,8.8473 -0.5911,12.2769 16.5629,15.8143 19.7837,2.7597 0.1701,-1.3774 1.2894,-1.346 1.0196,0.6091 -0.2937,5.3064 -1.9509,10.2661 -4.2287,15.1025 3.8391,0 8.1296,0 11.6202,0 -2.2777,-4.8364 -3.9349,-9.7961 -4.2286,-15.1025 -0.2699,-1.9551 0.8495,-1.9865 1.0195,-0.6091 3.2209,13.0546 20.3749,9.5172 19.7837,-2.7597 -0.4784,-9.9639 -9.8239,-12.1065 -14.6978,-8.8473 -1.9228,1.1974 -1.8145,0.482 -0.7645,-0.7645 7.239,-8.546 2.8561,-19.551 -6.9183,-19.7633 0,-10e-5 0,0 -0.01,0 z"
         id="path147-0-8-1-6-7-2-5-9"
         inkscape:connector-curvature="0"
         sodipodi:nodetypes="ccccccccccccccc"
         style="display:inline;opacity:1" />
      <path
         d="m 1107.7896,1392.6125 c -9.7745,-0.2122 -14.1574,-11.2172 -6.9184,-19.7632 1.0499,-1.2466 1.1582,-1.9619 -0.7646,-0.7646 -4.8738,3.2592 -14.2192,1.1167 -14.6978,-8.8472 -0.5911,-12.277 16.5629,-15.8143 19.7837,-2.7597 0.1701,1.3774 1.2895,1.3459 1.0196,-0.6092 -0.2937,-5.3064 -1.9509,-10.266 -4.2287,-15.1025 3.8391,0 8.1296,0 11.6202,0 -2.2776,4.8365 -3.9349,9.7961 -4.2286,15.1025 -0.2699,1.9551 0.8495,1.9866 1.0195,0.6092 3.2209,-13.0546 20.3749,-9.5173 19.7837,2.7597 -0.4784,9.9639 -9.8239,12.1064 -14.6978,8.8472 -1.9227,-1.1973 -1.8144,-0.482 -0.7645,0.7646 7.239,8.546 2.8561,19.551 -6.9183,19.7632 0,10e-5 0,0 -0.01,0 z"
         id="path147-0-8-1-6-1-4-3-4"
         inkscape:connector-curvature="0"
         sodipodi:nodetypes="ccccccccccccccc"
         style="display:inline;opacity:1" />
      <path
         d="m 1107.0825,1245.8728 c -9.7745,0.2123 -14.1574,11.2173 -6.9184,19.7633 1.0499,1.2465 1.1582,1.9619 -0.7646,0.7645 -4.8738,-3.2592 -14.2192,-1.1166 -14.6978,8.8473 -0.5911,12.2769 16.5629,15.8143 19.7837,2.7597 0.1701,-1.3774 1.2894,-1.346 1.0196,0.6091 -0.2937,5.3064 -1.9509,10.2661 -4.2287,15.1025 3.8391,0 8.1296,0 11.6202,0 -2.2777,-4.8364 -3.9349,-9.7961 -4.2286,-15.1025 -0.2699,-1.9551 0.8495,-1.9865 1.0195,-0.6091 3.2209,13.0546 20.3749,9.5172 19.7837,-2.7597 -0.4784,-9.9639 -9.8239,-12.1065 -14.6978,-8.8473 -1.9228,1.1974 -1.8144,0.482 -0.7645,-0.7645 7.239,-8.546 2.8561,-19.551 -6.9183,-19.7633 0,-1e-4 0,10e-5 -0.01,0 z"
         id="path147-0-8-1-6-1-1-0-4-8"
         inkscape:connector-curvature="0"
         sodipodi:nodetypes="ccccccccccccccc"
         style="display:inline;opacity:1" />
      <path
         d="m 1201.7716,1374.9751 c 3.9097,-0.089 5.663,-4.6739 2.7674,-8.2347 -0.4201,-0.5194 -0.4634,-0.8175 0.3058,-0.3186 1.9495,1.358 5.6877,0.4653 5.8791,-3.6864 0.2365,-5.1154 -6.6252,-6.5892 -7.9135,-1.1498 -0.068,0.5739 -0.5158,0.5608 -0.4078,-0.2538 0.1175,-2.211 0.7803,-4.2776 1.6914,-6.2928 -1.5492,0 -3.0986,0 -4.6478,0 0.9111,2.0152 1.5739,4.0818 1.6914,6.2928 0.108,0.8146 -0.3398,0.8277 -0.4078,0.2538 -1.2883,-5.4394 -8.1499,-3.9656 -7.9135,1.1498 0.1914,4.1517 3.9296,5.0444 5.8791,3.6864 0.7692,-0.4989 0.7259,-0.2008 0.3059,0.3186 -2.8956,3.5608 -1.1424,8.1462 2.7673,8.2347 10e-4,0 0,-1e-4 0,0 z"
         id="path147-6-9-8-7-0-5-5-1"
         inkscape:connector-curvature="0"
         sodipodi:nodetypes="ccccccccccccccc"
         style="display:inline;opacity:1" />
      <path
         d="m 1013.1095,1163.7881 c -3.9098,0.088 -5.663,4.6739 -2.7674,8.2347 0.42,0.5194 0.4633,0.8175 -0.3058,0.3186 -1.9496,-1.358 -5.6877,-0.4653 -5.8792,3.6863 -0.2364,5.1154 6.6252,6.5893 7.9136,1.1499 0.068,-0.5739 0.5158,-0.5608 0.4077,0.2538 -0.1174,2.211 -0.7803,4.2775 -1.6914,6.2927 1.5493,0 3.0986,0 4.6479,0 -0.9111,-2.0152 -1.574,-4.0817 -1.6914,-6.2927 -0.108,-0.8146 0.3397,-0.8277 0.4077,-0.2538 1.2884,5.4394 8.15,3.9655 7.9136,-1.1499 -0.1915,-4.1516 -3.9296,-5.0443 -5.8792,-3.6863 -0.7691,0.4989 -0.7258,0.2008 -0.3058,-0.3186 2.8956,-3.5608 1.1424,-8.1462 -2.7673,-8.2347 -10e-4,0 0,0 0,0 z"
         id="path147-6-9-8-7-4-5-8-2"
         inkscape:connector-curvature="0"
         sodipodi:nodetypes="ccccccccccccccc"
         style="display:inline;opacity:1" />
      <path
         d="m 1002.448,1153.4521 2.5292,-1.8626 c 2.1951,3.5789 4.65,5.9361 8.4054,5.5315 5.6343,-0.3876 7.969,-6.3015 6.7901,-10.7575 -1.1403,-3.9979 -5.8058,-5.9452 -9.5151,-3.8138 -0.8755,0.5051 -1.7202,0.9175 -1.8854,0.9175 -0.389,0 -1.2697,-1.7542 -1.1493,-2.2893 2.4894,-3.6402 8.5346,-10.0175 8.5346,-10.0175 l -9.4447,0 0,4.2707 -3.6248,0 0,-7.6629 18.4594,0 0,2.6 c 0,0 -4.9458,5.1359 -6.5802,7.9487 4.0254,0.1475 7.2701,2.7018 8.4349,6.7401 0.6796,2.1262 0.375,6.9894 -0.5146,9.0855 -1.486,3.4941 -5.5448,6.329 -9.2552,6.4921 -6.2296,0.419 -9.5344,-3.9508 -11.1843,-7.1825 l 0,0 z m 0,0"
         id="path17-9-7-6"
         inkscape:connector-curvature="0"
         style="opacity:1" />
      <path
         d="m 1212.4309,1385.3111 -2.5292,1.8625 c -2.1951,-3.5789 -4.65,-5.9361 -8.4054,-5.5314 -5.6343,0.3876 -7.9689,6.3015 -6.7901,10.7575 1.1404,3.9978 5.8059,5.9452 9.5151,3.8138 0.8755,-0.5051 1.7202,-0.9175 1.8854,-0.9175 0.389,0 1.2697,1.7541 1.1493,2.2892 -2.4894,3.6403 -8.5346,10.0176 -8.5346,10.0176 l 9.4447,0 0,-4.2707 3.6248,0 0,7.6629 -18.4594,0 0,-2.6 c 0,0 4.9458,-5.136 6.5802,-7.9488 -4.0254,-0.1474 -7.2701,-2.7017 -8.4348,-6.74 -0.6797,-2.1262 -0.3751,-6.9894 0.5145,-9.0856 1.486,-3.494 5.5448,-6.329 9.2553,-6.492 6.2295,-0.419 9.5343,3.9508 11.1842,7.1825 l 0,0 z m 0,0"
         id="path17-5-0-1-5"
         inkscape:connector-curvature="0"
         style="opacity:1" />
    </g>
  </g>
</svg>
